<mxfile host="app.diagrams.net" modified="2024-03-26T12:47:23.577Z" agent="Mozilla/5.0 (Windows NT 10.0; Win64; x64; rv:124.0) Gecko/20100101 Firefox/124.0" etag="2PTtHMNJw5R5CK6uh709" version="24.0.7" type="device">
  <diagram name="Page-1" id="xld5hn-b0TKSg5bB-_ga">
    <mxGraphModel dx="1984" dy="1703" grid="1" gridSize="10" guides="1" tooltips="1" connect="1" arrows="1" fold="1" page="1" pageScale="1" pageWidth="850" pageHeight="1100" math="0" shadow="0">
      <root>
        <mxCell id="0" />
        <mxCell id="1" parent="0" />
        <mxCell id="0IAm7xfOWSde1sFOafxm-1" value="Public subnet" style="points=[[0,0],[0.25,0],[0.5,0],[0.75,0],[1,0],[1,0.25],[1,0.5],[1,0.75],[1,1],[0.75,1],[0.5,1],[0.25,1],[0,1],[0,0.75],[0,0.5],[0,0.25]];outlineConnect=0;gradientColor=none;html=1;whiteSpace=wrap;fontSize=12;fontStyle=0;container=1;pointerEvents=0;collapsible=0;recursiveResize=0;shape=mxgraph.aws4.group;grIcon=mxgraph.aws4.group_security_group;grStroke=0;strokeColor=#7AA116;fillColor=#F2F6E8;verticalAlign=top;align=left;spacingLeft=30;fontColor=#248814;dashed=0;" vertex="1" parent="1">
          <mxGeometry x="90" y="100" width="310" height="220" as="geometry" />
        </mxCell>
        <mxCell id="0IAm7xfOWSde1sFOafxm-3" value="Amazon EC2" style="sketch=0;outlineConnect=0;fontColor=#232F3E;gradientColor=none;strokeColor=#ffffff;fillColor=#232F3E;dashed=0;verticalLabelPosition=middle;verticalAlign=bottom;align=center;html=1;whiteSpace=wrap;fontSize=10;fontStyle=1;spacing=3;shape=mxgraph.aws4.productIcon;prIcon=mxgraph.aws4.ec2;" vertex="1" parent="0IAm7xfOWSde1sFOafxm-1">
          <mxGeometry x="20" y="100" width="80" height="100" as="geometry" />
        </mxCell>
        <mxCell id="0IAm7xfOWSde1sFOafxm-8" value="&lt;font style=&quot;font-size: 19px;&quot;&gt;&lt;b&gt;192.168.0.0/24&lt;/b&gt;&lt;/font&gt;" style="text;html=1;align=center;verticalAlign=middle;resizable=0;points=[];autosize=1;strokeColor=none;fillColor=none;" vertex="1" parent="0IAm7xfOWSde1sFOafxm-1">
          <mxGeometry x="130" width="150" height="40" as="geometry" />
        </mxCell>
        <mxCell id="0IAm7xfOWSde1sFOafxm-4" value="Private subnet" style="points=[[0,0],[0.25,0],[0.5,0],[0.75,0],[1,0],[1,0.25],[1,0.5],[1,0.75],[1,1],[0.75,1],[0.5,1],[0.25,1],[0,1],[0,0.75],[0,0.5],[0,0.25]];outlineConnect=0;gradientColor=none;html=1;whiteSpace=wrap;fontSize=12;fontStyle=0;container=1;pointerEvents=0;collapsible=0;recursiveResize=0;shape=mxgraph.aws4.group;grIcon=mxgraph.aws4.group_security_group;grStroke=0;strokeColor=#00A4A6;fillColor=#E6F6F7;verticalAlign=top;align=left;spacingLeft=30;fontColor=#147EBA;dashed=0;" vertex="1" parent="1">
          <mxGeometry x="80" y="440" width="340" height="240" as="geometry" />
        </mxCell>
        <mxCell id="0IAm7xfOWSde1sFOafxm-9" value="&lt;font style=&quot;font-size: 19px;&quot;&gt;&lt;b&gt;192.168.1.0/24&lt;/b&gt;&lt;/font&gt;" style="text;html=1;align=center;verticalAlign=middle;resizable=0;points=[];autosize=1;strokeColor=none;fillColor=none;" vertex="1" parent="0IAm7xfOWSde1sFOafxm-4">
          <mxGeometry x="140" y="10" width="150" height="40" as="geometry" />
        </mxCell>
        <mxCell id="0IAm7xfOWSde1sFOafxm-10" value="&lt;div&gt;&lt;font size=&quot;1&quot;&gt;&lt;b&gt;&lt;font style=&quot;font-size: 18px;&quot;&gt;ROUTE TABLE &lt;/font&gt;&lt;/b&gt;&lt;br&gt;&lt;/font&gt;&lt;/div&gt;" style="text;html=1;align=center;verticalAlign=middle;resizable=0;points=[];autosize=1;strokeColor=none;fillColor=none;" vertex="1" parent="0IAm7xfOWSde1sFOafxm-4">
          <mxGeometry x="20" y="120" width="150" height="40" as="geometry" />
        </mxCell>
        <mxCell id="0IAm7xfOWSde1sFOafxm-13" value="&lt;font style=&quot;font-size: 24px;&quot;&gt;&lt;b&gt;10.100.1.0/24&lt;/b&gt;&lt;/font&gt;" style="text;html=1;align=center;verticalAlign=middle;resizable=0;points=[];autosize=1;strokeColor=none;fillColor=none;" vertex="1" parent="0IAm7xfOWSde1sFOafxm-4">
          <mxGeometry x="20" y="150" width="170" height="40" as="geometry" />
        </mxCell>
        <mxCell id="0IAm7xfOWSde1sFOafxm-20" value="Amazon EC2" style="sketch=0;outlineConnect=0;fontColor=#232F3E;gradientColor=none;strokeColor=#ffffff;fillColor=#232F3E;dashed=0;verticalLabelPosition=middle;verticalAlign=bottom;align=center;html=1;whiteSpace=wrap;fontSize=10;fontStyle=1;spacing=3;shape=mxgraph.aws4.productIcon;prIcon=mxgraph.aws4.ec2;" vertex="1" parent="0IAm7xfOWSde1sFOafxm-4">
          <mxGeometry x="220" y="70" width="80" height="100" as="geometry" />
        </mxCell>
        <mxCell id="0IAm7xfOWSde1sFOafxm-6" value="Private subnet" style="points=[[0,0],[0.25,0],[0.5,0],[0.75,0],[1,0],[1,0.25],[1,0.5],[1,0.75],[1,1],[0.75,1],[0.5,1],[0.25,1],[0,1],[0,0.75],[0,0.5],[0,0.25]];outlineConnect=0;gradientColor=none;html=1;whiteSpace=wrap;fontSize=12;fontStyle=0;container=1;pointerEvents=0;collapsible=0;recursiveResize=0;shape=mxgraph.aws4.group;grIcon=mxgraph.aws4.group_security_group;grStroke=0;strokeColor=#00A4A6;fillColor=#E6F6F7;verticalAlign=top;align=left;spacingLeft=30;fontColor=#147EBA;dashed=0;" vertex="1" parent="1">
          <mxGeometry x="710" y="440" width="340" height="240" as="geometry" />
        </mxCell>
        <mxCell id="0IAm7xfOWSde1sFOafxm-11" value="&lt;div&gt;&lt;font size=&quot;1&quot;&gt;&lt;b&gt;&lt;font style=&quot;font-size: 18px;&quot;&gt;ROUTE TABLE &lt;/font&gt;&lt;/b&gt;&lt;br&gt;&lt;/font&gt;&lt;/div&gt;" style="text;html=1;align=center;verticalAlign=middle;resizable=0;points=[];autosize=1;strokeColor=none;fillColor=none;" vertex="1" parent="0IAm7xfOWSde1sFOafxm-6">
          <mxGeometry x="10" y="130" width="150" height="40" as="geometry" />
        </mxCell>
        <mxCell id="0IAm7xfOWSde1sFOafxm-12" value="&lt;font style=&quot;font-size: 24px;&quot;&gt;&lt;b&gt;10.100.1.0/24&lt;/b&gt;&lt;/font&gt;" style="text;html=1;align=center;verticalAlign=middle;resizable=0;points=[];autosize=1;strokeColor=none;fillColor=none;" vertex="1" parent="0IAm7xfOWSde1sFOafxm-6">
          <mxGeometry x="160" y="10" width="170" height="40" as="geometry" />
        </mxCell>
        <mxCell id="0IAm7xfOWSde1sFOafxm-14" value="&lt;font style=&quot;font-size: 19px;&quot;&gt;&lt;b&gt;192.168.1.0/24&lt;/b&gt;&lt;/font&gt;" style="text;html=1;align=center;verticalAlign=middle;resizable=0;points=[];autosize=1;strokeColor=none;fillColor=none;" vertex="1" parent="0IAm7xfOWSde1sFOafxm-6">
          <mxGeometry x="20" y="170" width="150" height="40" as="geometry" />
        </mxCell>
        <mxCell id="0IAm7xfOWSde1sFOafxm-26" value="Amazon EC2" style="sketch=0;outlineConnect=0;fontColor=#232F3E;gradientColor=none;strokeColor=#ffffff;fillColor=#232F3E;dashed=0;verticalLabelPosition=middle;verticalAlign=bottom;align=center;html=1;whiteSpace=wrap;fontSize=10;fontStyle=1;spacing=3;shape=mxgraph.aws4.productIcon;prIcon=mxgraph.aws4.ec2;" vertex="1" parent="0IAm7xfOWSde1sFOafxm-6">
          <mxGeometry x="220" y="80" width="80" height="100" as="geometry" />
        </mxCell>
        <mxCell id="0IAm7xfOWSde1sFOafxm-16" value="" style="endArrow=classic;html=1;rounded=0;" edge="1" parent="1">
          <mxGeometry width="50" height="50" relative="1" as="geometry">
            <mxPoint x="420" y="560" as="sourcePoint" />
            <mxPoint x="700" y="560" as="targetPoint" />
          </mxGeometry>
        </mxCell>
        <mxCell id="0IAm7xfOWSde1sFOafxm-17" value="" style="endArrow=classic;html=1;rounded=0;" edge="1" parent="1">
          <mxGeometry width="50" height="50" relative="1" as="geometry">
            <mxPoint x="695" y="590" as="sourcePoint" />
            <mxPoint x="425" y="590" as="targetPoint" />
          </mxGeometry>
        </mxCell>
        <mxCell id="0IAm7xfOWSde1sFOafxm-28" value="VPC" style="sketch=0;outlineConnect=0;gradientColor=none;html=1;whiteSpace=wrap;fontSize=12;fontStyle=0;shape=mxgraph.aws4.group;grIcon=mxgraph.aws4.group_vpc;strokeColor=#879196;fillColor=none;verticalAlign=top;align=left;spacingLeft=30;fontColor=#879196;dashed=0;" vertex="1" parent="1">
          <mxGeometry x="-60" y="-30" width="590" height="790" as="geometry" />
        </mxCell>
        <mxCell id="0IAm7xfOWSde1sFOafxm-29" value="VPC" style="sketch=0;outlineConnect=0;gradientColor=none;html=1;whiteSpace=wrap;fontSize=12;fontStyle=0;shape=mxgraph.aws4.group;grIcon=mxgraph.aws4.group_vpc;strokeColor=#879196;fillColor=none;verticalAlign=top;align=left;spacingLeft=30;fontColor=#879196;dashed=0;" vertex="1" parent="1">
          <mxGeometry x="640" y="-10" width="590" height="800" as="geometry" />
        </mxCell>
        <mxCell id="0IAm7xfOWSde1sFOafxm-30" value="" style="endArrow=classic;html=1;rounded=0;" edge="1" parent="1">
          <mxGeometry width="50" height="50" relative="1" as="geometry">
            <mxPoint x="190" y="330" as="sourcePoint" />
            <mxPoint x="190" y="420" as="targetPoint" />
          </mxGeometry>
        </mxCell>
        <mxCell id="0IAm7xfOWSde1sFOafxm-31" value="&lt;font style=&quot;font-size: 26px;&quot;&gt;&lt;b&gt;SSH CONNECTION &lt;/b&gt;&lt;/font&gt;" style="text;html=1;align=center;verticalAlign=middle;resizable=0;points=[];autosize=1;strokeColor=none;fillColor=none;" vertex="1" parent="1">
          <mxGeometry x="220" y="353" width="260" height="40" as="geometry" />
        </mxCell>
        <mxCell id="0IAm7xfOWSde1sFOafxm-32" value="&lt;b&gt;&lt;font style=&quot;font-size: 29px;&quot;&gt;VPC-1&amp;nbsp;&amp;nbsp;&amp;nbsp;&amp;nbsp; 192.168.0.0/16&lt;/font&gt;&lt;/b&gt;" style="text;html=1;align=center;verticalAlign=middle;resizable=0;points=[];autosize=1;strokeColor=none;fillColor=none;" vertex="1" parent="1">
          <mxGeometry x="70" width="340" height="50" as="geometry" />
        </mxCell>
        <mxCell id="0IAm7xfOWSde1sFOafxm-33" value="&lt;b&gt;&lt;font style=&quot;font-size: 29px;&quot;&gt;VPC-2 &amp;nbsp;&amp;nbsp;&amp;nbsp; 10.100.0.0/16&lt;/font&gt;&lt;/b&gt;" style="text;html=1;align=center;verticalAlign=middle;resizable=0;points=[];autosize=1;strokeColor=none;fillColor=none;" vertex="1" parent="1">
          <mxGeometry x="770" y="10" width="330" height="50" as="geometry" />
        </mxCell>
        <mxCell id="0IAm7xfOWSde1sFOafxm-34" value="&lt;b&gt;&lt;font style=&quot;font-size: 30px;&quot;&gt;VPC PEERING &lt;/font&gt;&lt;/b&gt;" style="text;html=1;align=center;verticalAlign=middle;resizable=0;points=[];autosize=1;strokeColor=none;fillColor=none;" vertex="1" parent="1">
          <mxGeometry x="460" y="500" width="230" height="50" as="geometry" />
        </mxCell>
        <mxCell id="0IAm7xfOWSde1sFOafxm-35" value="&lt;b&gt;&lt;font style=&quot;font-size: 49px;&quot;&gt;VPC PEERING&lt;br&gt;&lt;/font&gt;&lt;/b&gt;" style="text;html=1;align=center;verticalAlign=middle;resizable=0;points=[];autosize=1;strokeColor=none;fillColor=none;" vertex="1" parent="1">
          <mxGeometry x="400" y="-160" width="360" height="70" as="geometry" />
        </mxCell>
        <mxCell id="0IAm7xfOWSde1sFOafxm-36" value="&lt;font style=&quot;font-size: 16px;&quot;&gt;&lt;b&gt;PUBLIC-SERVER-VPC-1&lt;/b&gt;&lt;/font&gt;" style="text;html=1;align=center;verticalAlign=middle;resizable=0;points=[];autosize=1;strokeColor=none;fillColor=none;" vertex="1" parent="1">
          <mxGeometry x="90" y="290" width="210" height="30" as="geometry" />
        </mxCell>
        <mxCell id="0IAm7xfOWSde1sFOafxm-37" value="&lt;font style=&quot;font-size: 16px;&quot;&gt;&lt;b&gt;PRIVATE-SERVER-VPC-2&lt;/b&gt;&lt;/font&gt;" style="text;html=1;align=center;verticalAlign=middle;resizable=0;points=[];autosize=1;strokeColor=none;fillColor=none;" vertex="1" parent="1">
          <mxGeometry x="840" y="640" width="210" height="30" as="geometry" />
        </mxCell>
        <mxCell id="0IAm7xfOWSde1sFOafxm-38" value="&lt;font style=&quot;font-size: 16px;&quot;&gt;&lt;b&gt;PRIVATE-SERVER-VPC-1&lt;/b&gt;&lt;/font&gt;" style="text;html=1;align=center;verticalAlign=middle;resizable=0;points=[];autosize=1;strokeColor=none;fillColor=none;" vertex="1" parent="1">
          <mxGeometry x="210" y="640" width="210" height="30" as="geometry" />
        </mxCell>
      </root>
    </mxGraphModel>
  </diagram>
</mxfile>
